<svg width="512" height="512" viewBox="0 0 512 512" fill="none" xmlns="http://www.w3.org/2000/svg">
  <rect width="512" height="512" rx="100" fill="url(#paint0_linear)"/>
  <path d="M256 128C185.3 128 128 185.3 128 256C128 326.7 185.3 384 256 384C326.7 384 384 326.7 384 256C384 185.3 326.7 128 256 128ZM256 341.3C208.9 341.3 170.7 303.1 170.7 256C170.7 208.9 208.9 170.7 256 170.7C303.1 170.7 341.3 208.9 341.3 256C341.3 303.1 303.1 341.3 256 341.3Z" fill="white" fill-opacity="0.8"/>
  <path d="M256 213.3V256H298.7" stroke="white" stroke-width="24" stroke-linecap="round" stroke-linejoin="round"/>
  <defs>
    <linearGradient id="paint0_linear" x1="0" y1="0" x2="512" y2="512" gradientUnits="userSpaceOnUse">
      <stop stop-color="#6366F1"/>
      <stop offset="1" stop-color="#A855F7"/>
    </linearGradient>
  </defs>
</svg>
